<?xml version="1.0" encoding="utf-8"?>
<!-- Generator: Adobe Illustrator 23.0.2, SVG Export Plug-In . SVG Version: 6.00 Build 0)  -->
<svg version="1.1" id="Layer_1" xmlns="http://www.w3.org/2000/svg" xmlns:xlink="http://www.w3.org/1999/xlink" x="0px" y="0px"
	 viewBox="0 0 273 73" style="enable-background:new 0 0 273 73;" xml:space="preserve">
<style type="text/css">
	.st0{fill-rule:evenodd;clip-rule:evenodd;fill:#2182DC;}
	.st1{fill-rule:evenodd;clip-rule:evenodd;fill:#3D9BF0;}
	.st2{fill-rule:evenodd;clip-rule:evenodd;fill:#41C672;}
	.st3{fill-rule:evenodd;clip-rule:evenodd;fill:#2DB25E;}
	.st4{fill-rule:evenodd;clip-rule:evenodd;fill:#6BE799;}
	.st5{fill:#0B2846;}
	.st6{display:none;}
	.st7{display:inline;fill-rule:evenodd;clip-rule:evenodd;fill:#41C672;}
	.st8{display:inline;fill:#FFFFFF;}
</style>
<title>logo</title>
<desc>Created with Sketch.</desc>
<g id="logo">
	<g id="Group-40" transform="translate(0.000000, 8.000000)">
		<g id="Group-5">
			<g id="Group">
				<path id="Path" class="st0" d="M42.1,1c0.3,0.2,6.1,4.6,17.6,13.2c0.7,0.7,0.2,1-1.5,1c-2.4,0-8.9,0-12.5,0
					c-3.6,0-3.6,3.4-3.6,4.9c0,1,0,9.5,0,25.4c0,0.7-0.3,1-1,1c-0.7,0-6.7-4.4-18.1-13.2c-0.3-0.3-0.5-0.8-0.5-1.5
					c0-1,0-26.6,0-28.3S23,0,25.8,0c1.8,0,6.3,0,13.4,0C40.1,0,41.1,0.3,42.1,1z"/>
				<path class="st1" d="M42.1,1c0.3,0.2,6.1,4.6,17.6,13.2c0.7,0.7,0.2,1-1.5,1s-6.1,0-13.5,0C31.1,5.1,24.6,0,25.2,0
					c0.7,0,5.3,0,13.9,0C40.1,0,41.1,0.3,42.1,1z"/>
				<path id="Path-2" class="st2" d="M17.6,12.2c0.7-0.1,1.3,0.2,2,0.9c0.7,0.7,6.4,4.4,17.2,11.3c0.7,0.6,1,1.5,1,2.9
					c0,1.4,0,10.7,0,27.9c0,1-0.7,1-2,0c-1.3-1-7-5.2-17.1-12.7c-0.7-0.3-1-1.3-1-2.9C17.6,38,17.6,28.8,17.6,12.2L17.6,12.2z"/>
				<path id="Rectangle" class="st3" d="M17.6,29.4l0.1-17.1c0-0.6,0.5-1,1-1c0.2,0,0.4,0.1,0.6,0.2L37,24.9
					c0.2,0.1,0.3,0.3,0.4,0.6c0,0.2-0.1,0.4-0.3,0.4l-18.2,4.5c-0.5,0.1-1.1-0.2-1.2-0.7C17.6,29.6,17.6,29.5,17.6,29.4z"/>
				<path id="Path-3" class="st4" d="M1,9.5c1.5,0,12.4,0,14.7,0c1.5,0,3.1,0.6,4.8,1.7c10.3,7.9,15.7,12.2,16.4,13
					c0.7,0.8,0.9,2.8,0.8,6c0.3-4-0.9-6-3.6-6c-4,0-11.5,0.4-13,0.4c-1.5,0-1.5,0-2.4-0.5S1,10.9,0.5,10.5C0,10.1-0.5,9.5,1,9.5z"/>
			</g>
			<path id="TrustLayer" class="st5" d="M51,29.2v-3.7h16v3.7h-5.7v17.1h-4.5V29.2H51z M67,33c1.7-1.2,3.5-1.9,5.3-2.2
				c1.8-0.3,3.5-0.2,5.2,0.4l-0.6,3.3c-0.4-0.1-0.9-0.1-1.4-0.2c-0.5,0-0.9,0-1.4,0c-0.5,0.1-0.9,0.2-1.4,0.3s-0.9,0.4-1.4,0.7v10.9
				H67V33z M79.1,31.1h4.3v8.9c0,0.6,0.1,1.2,0.2,1.6c0.1,0.4,0.3,0.7,0.6,1c0.2,0.2,0.5,0.4,0.9,0.5c0.3,0.1,0.7,0.1,1.1,0.1
				c0.6,0,1.1-0.1,1.6-0.3c0.5-0.2,0.9-0.4,1.3-0.7V31.1h4.3v15.2h-3.8l-0.5-1.5c-0.2,0.2-0.5,0.5-0.8,0.7s-0.6,0.4-1,0.6
				c-0.4,0.2-0.8,0.3-1.2,0.4s-0.9,0.2-1.3,0.2c-1,0-1.9-0.2-2.6-0.5s-1.3-0.8-1.8-1.4c-0.5-0.6-0.8-1.3-1-2
				c-0.2-0.8-0.3-1.6-0.3-2.5V31.1z M96.7,42c0.8,0.4,1.7,0.7,2.4,0.9s1.5,0.3,2.2,0.3c0.3,0,0.6,0,0.9-0.1c0.3-0.1,0.5-0.2,0.7-0.3
				c0.2-0.1,0.4-0.3,0.5-0.5c0.1-0.2,0.2-0.4,0.2-0.6c0-0.2-0.1-0.3-0.2-0.5c-0.1-0.1-0.3-0.3-0.6-0.4c-0.3-0.1-0.6-0.3-1-0.4
				c-0.4-0.1-0.9-0.3-1.5-0.5c-0.6-0.2-1.2-0.4-1.8-0.7c-0.5-0.2-1-0.5-1.4-0.9c-0.4-0.4-0.7-0.8-1-1.3c-0.2-0.5-0.4-1.1-0.4-1.8
				c0-0.8,0.2-1.5,0.5-2.1c0.3-0.6,0.8-1,1.3-1.4c0.6-0.4,1.2-0.6,1.9-0.8c0.7-0.2,1.5-0.3,2.3-0.3c1.2,0,2.3,0.1,3.2,0.4
				c0.9,0.2,1.7,0.6,2.4,0.9l-1.1,3c-0.7-0.3-1.4-0.5-2-0.6c-0.6-0.1-1.1-0.2-1.7-0.2c-0.4,0-0.7,0-1.1,0.1c-0.3,0-0.6,0.1-0.8,0.2
				c-0.2,0.1-0.4,0.2-0.5,0.4c-0.1,0.2-0.2,0.4-0.2,0.6c0,0.2,0.1,0.4,0.3,0.6c0.2,0.1,0.4,0.3,0.7,0.4c0.3,0.1,0.6,0.2,1,0.3
				c0.4,0.1,0.8,0.2,1.1,0.3c0.8,0.3,1.5,0.5,2,0.9c0.6,0.3,1,0.7,1.4,1.1c0.4,0.4,0.6,0.8,0.8,1.3c0.2,0.5,0.3,1,0.3,1.6
				c0,0.8-0.2,1.4-0.5,2c-0.3,0.6-0.8,1.1-1.3,1.5s-1.2,0.7-1.9,0.9c-0.7,0.2-1.5,0.3-2.3,0.3c-0.8,0-1.5,0-2.2-0.1
				c-0.7-0.1-1.3-0.2-1.8-0.4c-0.5-0.1-1-0.3-1.4-0.5c-0.4-0.2-0.7-0.3-1-0.5L96.7,42z M109.6,31.4l1.7-0.4l0.5-3.8h3.8v3.8h3.3v3.2
				h-3.3v6.8c0,0.3,0,0.6,0.1,0.8c0,0.2,0.1,0.5,0.2,0.6c0.1,0.2,0.3,0.3,0.5,0.4c0.2,0.1,0.4,0.1,0.7,0.1c0.4,0,0.8-0.1,1.2-0.2
				s0.7-0.2,1-0.3l1,2.9c-0.3,0.2-0.7,0.3-1,0.5c-0.3,0.1-0.7,0.3-1,0.4c-0.4,0.1-0.7,0.2-1.1,0.2c-0.4,0.1-0.8,0.1-1.3,0.1
				c-0.6,0-1.2-0.1-1.8-0.3c-0.6-0.2-1-0.5-1.5-0.9c-0.4-0.4-0.7-0.9-1-1.6s-0.4-1.4-0.4-2.3v-7.4h-1.7V31.4z M123,46.3V25.5h4.5
				v17.1h8.5v3.7H123z M137.6,38.9c0-1.4,0.2-2.6,0.6-3.6c0.4-1,0.9-1.9,1.7-2.6c0.7-0.7,1.6-1.2,2.6-1.5c1-0.3,2.2-0.5,3.4-0.5
				c0.6,0,1.2,0,1.8,0.1s1.2,0.2,1.7,0.3c0.5,0.1,1.1,0.3,1.5,0.5s0.9,0.4,1.3,0.6v14.1h-3.8l-0.5-1.6c-0.2,0.2-0.5,0.4-0.8,0.6
				s-0.6,0.4-1,0.6c-0.4,0.2-0.8,0.3-1.2,0.5c-0.4,0.1-0.9,0.2-1.5,0.2c-0.9,0-1.7-0.2-2.4-0.5c-0.7-0.3-1.4-0.8-1.9-1.5
				c-0.5-0.7-0.9-1.5-1.2-2.4C137.7,41.2,137.6,40.1,137.6,38.9z M141.8,38.7c0,0.8,0.1,1.5,0.2,2c0.2,0.6,0.4,1,0.7,1.4
				c0.3,0.4,0.6,0.6,1,0.8c0.4,0.2,0.8,0.2,1.3,0.2c0.6,0,1.1-0.1,1.6-0.3c0.5-0.2,0.9-0.5,1.3-0.7v-7.5c-0.2-0.1-0.5-0.2-0.9-0.3
				c-0.4-0.1-0.9-0.2-1.5-0.2c-0.6,0-1.1,0.1-1.5,0.3c-0.5,0.2-0.8,0.5-1.2,0.8c-0.3,0.4-0.6,0.9-0.7,1.4
				C141.9,37.3,141.8,37.9,141.8,38.7z M156.3,51.7c0.7-0.8,1.3-1.7,2-2.6s1.3-1.9,1.8-2.9h-0.6c-0.7-1.2-1.4-2.5-1.9-3.8
				s-1.1-2.6-1.5-3.9s-0.8-2.6-1.1-3.9c-0.3-1.3-0.5-2.5-0.7-3.7l4.6-0.1c0.1,1,0.2,2,0.4,3c0.2,1,0.4,2.1,0.7,3.1
				c0.3,1,0.6,2,0.9,3s0.7,1.8,1.1,2.7h0.2c0.3-0.6,0.6-1.2,0.9-1.9c0.3-0.7,0.5-1.4,0.7-2.1c0.2-0.7,0.4-1.4,0.6-2.2
				c0.2-0.7,0.3-1.4,0.5-2.1s0.2-1.3,0.3-1.9c0.1-0.6,0.1-1.1,0.2-1.5l4.7,0.1c-0.1,0.7-0.2,1.6-0.4,2.4c-0.2,0.9-0.4,1.8-0.7,2.7
				c-0.3,0.9-0.6,1.9-0.9,2.8s-0.7,1.9-1.1,2.7c-0.4,0.9-0.7,1.7-1.1,2.5c-0.4,0.8-0.8,1.4-1.1,2c-0.2,0.5-0.6,1-0.9,1.7
				c-0.4,0.6-0.8,1.3-1.2,2c-0.4,0.7-0.8,1.4-1.3,2c-0.4,0.7-0.8,1.2-1.2,1.7L156.3,51.7z M175.6,40.6c0.2,0.8,0.7,1.5,1.4,1.9
				s1.6,0.6,2.8,0.6c0.4,0,0.7,0,1.1-0.1c0.3-0.1,0.7-0.2,1-0.3c0.3-0.1,0.6-0.2,0.9-0.4c0.3-0.1,0.6-0.3,0.9-0.4l1.2,3
				c-0.8,0.5-1.7,0.9-2.7,1.2c-1,0.3-2,0.4-3.1,0.4c-2.5,0-4.5-0.7-5.9-2c-1.4-1.3-2.1-3.3-2.1-6c0-1.3,0.2-2.5,0.6-3.5
				c0.4-1,0.9-1.8,1.6-2.5c0.7-0.7,1.5-1.2,2.4-1.5s2-0.5,3.1-0.5c1,0,1.9,0.1,2.7,0.4c0.8,0.3,1.5,0.7,2,1.1c0.6,0.5,1,1,1.3,1.6
				c0.3,0.6,0.5,1.3,0.5,2c0,0.6-0.1,1.1-0.2,1.7c-0.2,0.6-0.5,1.1-0.9,1.6c-0.4,0.5-1,0.8-1.7,1.1c-0.7,0.3-1.6,0.4-2.7,0.4H175.6z
				 M178.7,34.1c-0.5,0-0.9,0.1-1.3,0.3c-0.4,0.2-0.7,0.4-0.9,0.7c-0.3,0.3-0.5,0.6-0.6,1c-0.2,0.4-0.3,0.8-0.4,1.2h3.6
				c0.3,0,0.6,0,0.8,0c0.2,0,0.5-0.1,0.6-0.2c0.2-0.1,0.3-0.2,0.4-0.4s0.1-0.4,0.1-0.6c0-0.3-0.1-0.6-0.2-0.9
				c-0.1-0.2-0.3-0.4-0.6-0.6c-0.2-0.2-0.5-0.3-0.8-0.3C179.3,34.2,179,34.1,178.7,34.1z M188.2,33c1.7-1.2,3.5-1.9,5.3-2.2
				c1.8-0.3,3.5-0.2,5.2,0.4l-0.6,3.3c-0.4-0.1-0.9-0.1-1.4-0.2c-0.5,0-0.9,0-1.4,0c-0.5,0.1-0.9,0.2-1.4,0.3s-0.9,0.4-1.4,0.7v10.9
				h-4.3V33z"/>
		</g>
		<g id="Group-33" transform="translate(208.000000, 20.000000)" class="st6">
			<path class="st7" d="M2,0.5h29c1.1,0,2,0.9,2,2v10.8c0,1.1-0.9,2-2,2H2c-1.1,0-2-0.9-2-2V2.5C0,1.4,0.9,0.5,2,0.5z"/>
			<path id="BETA" class="st8" d="M8.4,10.8H5.7V4.6h2.6c1.1,0,1.8,0.6,1.8,1.5c0,0.7-0.5,1.2-1.1,1.3v0c0.8,0.1,1.4,0.7,1.4,1.5
				C10.5,10.1,9.7,10.8,8.4,10.8z M7,5.6v1.6h0.9C8.6,7.2,9,6.9,9,6.4C9,5.9,8.6,5.6,8,5.6H7z M7,9.8h1.1c0.7,0,1.1-0.3,1.1-0.9
				C9.2,8.3,8.8,8,8.1,8H7V9.8z M15.9,9.7v1.1h-4V4.6h4v1.1h-2.7v1.5h2.6v1h-2.6v1.6H15.9z M20.1,10.8h-1.3V5.7h-1.7V4.6h4.8v1.1
				h-1.8V10.8z M26.3,10.8l-0.5-1.5h-2.1l-0.5,1.5H22l2.1-6.2h1.5l2.1,6.2H26.3z M24.8,5.8L24,8.3h1.6L24.8,5.8L24.8,5.8z"/>
		</g>
	</g>
</g>
</svg>
